# xmcd
#
# Track frame offsets: 
#        150
#        13313
#        25593
#        37630
#        48841
#        61304
#        73169
#        84132
#        96134
#        107561
#        119830
#        132194
#        144692
#        157633
#        171080
#        182176
#        194334
#        201897
#        213731
#        221128
#
# Disc length: 3142 seconds
#
# Revision: 0
# Processed by: cddbd v1.5.2PL0 Copyright (c) Steve Scherf et al.
# Submitted via: ExactAudioCopy v1.0b3
#
DISCID=1c0c4414
DTITLE=Gene Autry - The Ssential Recordings - CD2
DYEAR=2014
DGENRE=Western
TTITLE0=South Of The Border  (1939)
TTITLE1=El Rancho Grande  (1940)
TTITLE2=Blueberry Hill  (1940)
TTITLE3=You Are My Sunshine  (1941)
TTITLE4=Deep In The Heart Of Texas  (1941)
TTITLE5=Home On The Range  (1946)
TTITLE6=I'm Thinking Tonight Of My Blue Eyes  (1942)
TTITLE7=The Call Of The Canyon  (1942)
TTITLE8=Don't Fence Me In  (1944)
TTITLE9=Have I Told You Lately That I Love You?  (1945)
TTITLE10=Gonna Build A Big Fence Around Texas  (1945)
TTITLE11=At Mail Call Today  (1945)
TTITLE12=I Whish I Had Never Met Sunshine  (1946)
TTITLE13=Over  And Over Again  (1946)
TTITLE14=Red River Valley  (1946)
TTITLE15=(I've Got Spurs Thatr) Jingle Jangle Jingle  (1942)
TTITLE16=Someda You'll Want Me To Want You  (1946)
TTITLE17=Buttons And Bows  (1948)
TTITLE18=You've Got To Take That Bitter With The Sweet  (1955)
TTITLE19=Ghost Riders In The Sky  (1949)
EXTD=
EXTT0=
EXTT1=
EXTT2=
EXTT3=
EXTT4=
EXTT5=
EXTT6=
EXTT7=
EXTT8=
EXTT9=
EXTT10=
EXTT11=
EXTT12=
EXTT13=
EXTT14=
EXTT15=
EXTT16=
EXTT17=
EXTT18=
EXTT19=
PLAYORDER=
